<svg xmlns="http://www.w3.org/2000/svg" viewBox="0 0 318.42 318.42"><defs><style>.cls-1{fill:#ca2500;}.cls-2{fill:#fff;}</style></defs><title>Asset 1</title><g id="Layer_2" data-name="Layer 2"><g id="Layer_1-2" data-name="Layer 1"><circle class="cls-1" cx="159.21" cy="159.21" r="159.21"/><path class="cls-2" d="M91.21,208.3V65.05s18.57,34.51,51.48,47.46c17.54,6.91,37.32,2,52.42,5.48,21.24,4.94,34,11.32,49.71,28.52,0,0-25.77-10.31-42.41-6.34-17.46,4.16-19.64,10.61-37.23,14.05-16.28,3.18-41.11-3.09-41.11-3.09s12.09,33.14,37.17,33.14c16.71,0,27.18-10.88,43.25-9.36,21.39,2,46.6,41,53.75,47.24,0,0-37.92-18.94-54.64-14.21-25.11,7.12-33.88,23.67-55.34,28.41C119.06,242.79,91.21,208.3,91.21,208.3Z"/></g></g></svg>